# xmcd CD database file
#
# Track frame offsets:
#	150
#	35819
#	78292
#
# Disc length: 1367 seconds
#
# Revision: 3
# Processed by: cddbd v1.4PL0 Copyright (c) Steve Scherf et al.
# Submitted via: Gronk 1.4
#
DISCID=1c055503
DTITLE=Peter Gabriel - The Story of OVO
DYEAR=1900
DGENRE=blues
TTITLE0=The Story Of OVO
TTITLE1=DATA
TTITLE2=The Story Of OVO 2
EXTD=
EXTT0=
EXTT1=
EXTT2=
PLAYORDER=
